<svg width="390" height="186" viewBox="0 0 390 186" fill="none" xmlns="http://www.w3.org/2000/svg">
<path d="M11.48 69.0001L17.144 52.1041H39.608L45.368 69.0001H57.848L35.288 5.16006H22.232L0.151978 69.0001H11.48ZM28.376 15.9121C28.376 15.9121 28.568 15.9121 28.664 15.9121L37.304 43.2721H19.448L28.376 15.9121Z" fill="white"/>
<path d="M81.9665 19.2721C67.1825 19.2721 58.7345 30.3121 58.7345 46.7281C58.7345 58.7281 62.6705 70.4401 77.6465 70.4401C82.9265 70.4401 87.7265 68.1361 90.7025 63.7201L91.0865 63.8161L91.8545 69.0001H101.646L100.782 59.5921V2.28005H89.4545V20.4241C87.2465 19.7521 85.0385 19.2721 81.9665 19.2721ZM89.4545 54.0241C89.4545 57.7681 85.8065 61.9921 79.9505 61.9921C72.1745 61.9921 70.0625 54.4081 70.0625 45.6721C70.0625 36.2641 73.1345 27.6241 82.2545 27.6241C85.2305 27.6241 87.7265 28.3921 89.4545 29.1601V54.0241Z" fill="white"/>
<path d="M121.529 69.0001V20.7121H110.105V69.0001H121.529ZM109.145 6.88806C109.145 10.5361 111.737 13.2241 115.769 13.2241C119.609 13.2241 122.393 10.5361 122.393 6.88806C122.393 3.33606 119.705 0.456055 115.769 0.456055C111.833 0.456055 109.145 3.33606 109.145 6.88806Z" fill="white"/>
<path d="M155.718 20.7121C157.254 26.8561 158.982 34.5361 158.982 42.6001C158.982 51.8161 156.486 61.4161 148.422 61.4161C142.278 61.4161 141.894 56.8081 141.894 50.9521V20.7121H130.374V53.2561C130.374 65.0641 135.846 70.3441 147.174 70.3441C162.438 70.3441 170.214 59.4961 170.214 41.8321C170.214 34.5361 168.774 26.7601 167.046 20.7121H155.718Z" fill="white"/>
<path d="M188.988 69.0001V20.7121H177.564V69.0001H188.988ZM176.604 6.88806C176.604 10.5361 179.196 13.2241 183.228 13.2241C187.068 13.2241 189.852 10.5361 189.852 6.88806C189.852 3.33606 187.164 0.456055 183.228 0.456055C179.292 0.456055 176.604 3.33606 176.604 6.88806Z" fill="white"/>
<path d="M209.449 69.0001V37.8001C209.449 32.8081 213.481 28.1041 219.241 28.1041C225.385 28.1041 226.441 32.6161 226.441 38.4721V69.0001H237.865V35.9761C237.865 24.6481 232.201 19.2721 222.601 19.2721C216.265 19.2721 211.177 21.9601 207.817 26.7601L206.857 20.7121H197.257L198.025 29.0641V69.0001H209.449Z" fill="white"/>
<path d="M286.257 22.6321C279.345 20.0401 272.337 19.2721 269.169 19.2721C252.657 19.2721 244.209 30.0241 244.209 46.9201C244.209 60.6481 249.489 70.2481 263.025 70.2481C268.305 70.2481 273.201 68.1361 276.177 63.8161L276.561 63.9121L277.233 69.0001H287.121L286.257 59.7841V22.6321ZM274.929 53.7361C274.929 57.8641 271.473 62.0881 265.521 62.0881C257.457 62.0881 255.537 54.5041 255.537 46.5361C255.537 36.1681 258.609 27.6241 267.729 27.6241C270.705 27.6241 273.489 28.2001 274.929 28.8721V53.7361Z" fill="white"/>
<path d="M5.04798 98.3761V151.656C5.04798 158.856 5.81598 166.44 18.776 166.44C22.904 166.44 27.608 165.192 30.2 163.56L27.704 155.88C25.688 156.744 23.576 157.416 21.656 157.416C17.72 157.416 16.472 155.208 16.472 149.256V98.3761H5.04798Z" fill="white"/>
<path d="M71.8137 118.632C64.9017 116.04 57.8937 115.272 54.7257 115.272C38.2137 115.272 29.7657 126.024 29.7657 142.92C29.7657 156.648 35.0457 166.248 48.5817 166.248C53.8617 166.248 58.7577 164.136 61.7337 159.816L62.1177 159.912L62.7897 165H72.6777L71.8137 155.784V118.632ZM60.4857 149.736C60.4857 153.864 57.0297 158.088 51.0777 158.088C43.0137 158.088 41.0937 150.504 41.0937 142.536C41.0937 132.168 44.1657 123.624 53.2857 123.624C56.2617 123.624 59.0457 124.2 60.4857 124.872V149.736Z" fill="white"/>
<path d="M109.548 163.656C112.044 165.192 115.788 166.44 119.532 166.44C132.108 166.44 139.884 157.32 139.884 140.424C139.884 123.816 132.684 115.272 117.324 115.272C112.428 115.272 105.324 116.232 98.1245 118.44V185.16H109.548V163.656ZM128.364 141.288C128.364 148.968 125.868 157.032 117.708 157.032C115.212 157.032 112.044 156.264 109.548 154.632V125.064C111.564 124.584 113.484 124.392 115.212 124.392C124.044 124.392 128.364 130.056 128.364 141.288Z" fill="white"/>
<path d="M186.174 118.632C179.262 116.04 172.254 115.272 169.086 115.272C152.574 115.272 144.126 126.024 144.126 142.92C144.126 156.648 149.406 166.248 162.942 166.248C168.222 166.248 173.118 164.136 176.094 159.816L176.478 159.912L177.15 165H187.038L186.174 155.784V118.632ZM174.846 149.736C174.846 153.864 171.39 158.088 165.438 158.088C157.374 158.088 155.454 150.504 155.454 142.536C155.454 132.168 158.526 123.624 167.646 123.624C170.622 123.624 173.406 124.2 174.846 124.872V149.736Z" fill="white"/>
<path d="M195.304 98.3761V151.656C195.304 158.856 196.072 166.44 209.032 166.44C213.16 166.44 217.864 165.192 220.456 163.56L217.96 155.88C215.944 156.744 213.832 157.416 211.912 157.416C207.976 157.416 206.728 155.208 206.728 149.256V98.3761H195.304Z" fill="white"/>
<path d="M262.07 118.632C255.158 116.04 248.15 115.272 244.982 115.272C228.47 115.272 220.022 126.024 220.022 142.92C220.022 156.648 225.302 166.248 238.838 166.248C244.118 166.248 249.014 164.136 251.99 159.816L252.374 159.912L253.046 165H262.934L262.07 155.784V118.632ZM250.742 149.736C250.742 153.864 247.286 158.088 241.334 158.088C233.27 158.088 231.35 150.504 231.35 142.536C231.35 132.168 234.422 123.624 243.542 123.624C246.518 123.624 249.302 124.2 250.742 124.872V149.736Z" fill="white"/>
<path d="M271.2 162.312C275.232 164.616 283.584 166.44 290.304 166.44C304.8 166.44 313.056 157.224 313.056 138.504C313.056 123.528 305.856 115.272 293.952 115.272C289.44 115.272 285.312 116.808 282.624 119.304V98.2801H271.2V162.312ZM282.624 130.824C282.624 126.504 286.56 123.624 290.976 123.624C299.904 123.624 301.728 132.552 301.728 140.04C301.728 153.192 297.504 158.28 290.784 158.28C287.616 158.28 284.448 157.32 282.624 156.36V130.824Z" fill="white"/>
<path d="M331.218 134.664C331.41 129.096 334.77 124.968 339.954 124.968C342.45 124.968 344.658 125.736 346.77 126.888L348.786 117.192C346.674 115.944 343.986 115.272 341.106 115.272C336.306 115.272 331.602 118.248 329.49 123.72L328.338 116.712H318.93L319.794 124.488V165H331.218V134.664Z" fill="white"/>
<path d="M388.899 118.632C381.987 116.04 374.979 115.272 371.811 115.272C355.299 115.272 346.851 126.024 346.851 142.92C346.851 156.648 352.131 166.248 365.667 166.248C370.947 166.248 375.843 164.136 378.819 159.816L379.203 159.912L379.875 165H389.763L388.899 155.784V118.632ZM377.571 149.736C377.571 153.864 374.115 158.088 368.163 158.088C360.099 158.088 358.179 150.504 358.179 142.536C358.179 132.168 361.251 123.624 370.371 123.624C373.347 123.624 376.131 124.2 377.571 124.872V149.736Z" fill="white"/>
</svg>
