<svg width="53" height="53" viewBox="0 0 53 53" fill="none" xmlns="http://www.w3.org/2000/svg">
<g clip-path="url(#clip0_103_47)">
<path d="M19.3781 53.3311C15.0719 53.3311 12.0906 49.5217 9.93752 46.2092C4.47189 37.7623 3.31252 27.1623 7.28752 21.0342C9.93752 16.8936 14.2438 14.4092 18.3844 14.4092C20.5375 14.4092 22.3594 15.0717 23.85 15.5686C25.0094 16.0654 26.1688 16.3967 27.3281 16.3967C28.3219 16.3967 29.15 16.0654 30.3094 15.5686C31.8 15.0717 33.6219 14.4092 36.1063 14.4092C39.75 14.4092 43.5594 16.3967 46.2094 19.7092C46.5406 20.0404 46.7063 20.5373 46.5406 21.0342C46.375 21.5311 46.2094 21.8623 45.7125 22.1936C42.7313 23.8498 41.075 26.8311 41.4063 30.1436C41.5719 33.6217 43.725 36.4373 46.8719 37.5967C47.3688 37.7623 47.7 38.0936 47.8656 38.5904C48.0313 39.0873 48.0313 39.4186 47.8656 39.9154C46.7063 42.3998 46.2094 43.5592 44.7188 45.7123C42.2344 49.3561 39.2531 53.1654 35.2781 53.1654C33.4563 53.1654 32.2969 52.6686 31.3031 52.1717C30.3094 51.6748 29.3156 51.1779 27.3281 51.1779C25.5063 51.1779 24.5125 51.6748 23.3531 52.1717C22.3594 52.8342 21.2 53.3311 19.3781 53.3311Z" fill="black"/>
<path d="M26.0031 14.409C25.8375 14.409 25.8375 14.409 25.6719 14.409C24.8438 14.409 24.1813 13.7465 24.0156 13.084C23.5188 10.2684 24.5125 6.95586 26.6656 4.30586C28.6531 1.82148 31.9656 0.165234 34.9469 -0.166016C35.775 -0.166016 36.6031 0.330859 36.7688 1.32461C37.2656 4.30586 36.2719 7.45273 34.1188 10.1027C32.2969 12.7527 28.9844 14.409 26.0031 14.409Z" fill="black"/>
</g>
<defs>
<clipPath id="clip0_103_47">
<rect width="53" height="53" fill="white"/>
</clipPath>
</defs>
</svg>
