<svg width="21" height="20" viewBox="0 0 21 20" fill="none" xmlns="http://www.w3.org/2000/svg">
<path d="M18.07 4.64056H13V6.05056H18.09L18.07 4.64056ZM17 14.3406C16.6154 14.5954 16.1612 14.7247 15.7 14.7106C15.3947 14.7424 15.0862 14.7109 14.7937 14.6179C14.5011 14.525 14.2309 14.3727 14 14.1706C13.573 13.6864 13.3507 13.0554 13.38 12.4106H20C20.0477 11.7391 19.9904 11.0643 19.83 10.4106C19.6749 9.78859 19.4034 9.20159 19.03 8.68056C18.6541 8.17517 18.1686 7.76148 17.61 7.47056C16.9884 7.16411 16.3029 7.00986 15.61 7.02056C14.9583 7.01579 14.3123 7.1416 13.71 7.39056C13.1585 7.62306 12.6588 7.963 12.24 8.39056C11.8224 8.82668 11.499 9.34408 11.29 9.91056C11.0657 10.5221 10.9539 11.1692 10.96 11.8206C10.9497 12.4812 11.0581 13.1383 11.28 13.7606C11.4685 14.3241 11.7677 14.8443 12.16 15.2906C12.5659 15.7287 13.0648 16.0704 13.62 16.2906C14.2391 16.5264 14.8976 16.6419 15.56 16.6306C16.4894 16.6595 17.407 16.4162 18.2 15.9306C19.0009 15.3614 19.5775 14.5301 19.83 13.5806H17.62C17.5017 13.8947 17.284 14.1616 17 14.3406ZM13.57 10.2206C13.6478 9.97125 13.777 9.741 13.9493 9.54465C14.1215 9.3483 14.3329 9.19021 14.57 9.08056C14.884 8.93925 15.2258 8.87087 15.57 8.88056C15.8186 8.85933 16.0689 8.89213 16.3036 8.97671C16.5384 9.06129 16.7521 9.19564 16.93 9.37056C17.2698 9.7865 17.4878 10.2884 17.56 10.8206H13.41C13.4262 10.6173 13.463 10.4163 13.52 10.2206H13.57ZM8.28 9.74056C8.78896 9.52863 9.23121 9.18312 9.56 8.74056C9.86222 8.27057 10.0124 7.7189 9.99 7.16056C10.0096 6.6514 9.91031 6.14468 9.7 5.68056C9.52331 5.27848 9.23968 4.93259 8.88 4.68056C8.49865 4.41854 8.06561 4.24123 7.61 4.16056C7.07082 4.04748 6.52087 3.99382 5.97 4.00056H0V16.5806H6.1C6.65669 16.581 7.21116 16.5104 7.75 16.3706C8.26074 16.2384 8.74462 16.0185 9.18 15.7206C9.60174 15.4283 9.94515 15.0368 10.18 14.5806C10.4399 14.0704 10.5672 13.5029 10.55 12.9306C10.5689 12.2213 10.37 11.5233 9.98 10.9306C9.56059 10.3345 8.93852 9.91148 8.23 9.74056H8.28ZM2.77 6.15056H5.36C5.59795 6.15027 5.83548 6.17034 6.07 6.21056C6.28595 6.24257 6.49334 6.31736 6.68 6.43056C6.86035 6.53258 7.00648 6.68567 7.1 6.87056C7.21582 7.09228 7.27102 7.34066 7.26 7.59056C7.27863 7.8058 7.24572 8.02238 7.16399 8.22237C7.08225 8.42235 6.95405 8.59999 6.79 8.74056C6.43212 8.9866 6.00388 9.10945 5.57 9.09056H2.77V6.15056ZM7.61 13.5906C7.50726 13.7944 7.35189 13.967 7.16 14.0906C6.9603 14.2148 6.74027 14.3028 6.51 14.3506C6.25406 14.4079 5.99224 14.4347 5.73 14.4306H2.73V10.9806H5.73C6.24482 10.958 6.75322 11.1018 7.18 11.3906C7.37281 11.5636 7.52217 11.7796 7.61599 12.0211C7.7098 12.2626 7.74543 12.5227 7.72 12.7806C7.74704 13.0554 7.70936 13.3328 7.61 13.5906V13.5906Z" fill="white"/>
</svg>
