<svg width="462" height="165" viewBox="0 0 462 165" fill="none" xmlns="http://www.w3.org/2000/svg">
<path d="M29.873 58.4558C18.161 58.4558 12.785 49.3358 12.785 34.6478C12.785 20.1518 19.313 11.8958 29.201 11.8958C34.961 11.8958 39.281 14.8718 43.313 19.9598L51.665 13.9118C45.617 4.98379 37.265 2.00779 29.777 2.00779C16.145 2.00779 0.785004 10.3598 0.785004 35.4158C0.785004 57.3038 11.825 68.1518 29.201 68.1518C37.553 68.1518 44.561 65.3678 50.897 59.4158L44.849 51.7358C40.049 56.0558 35.249 58.4558 29.873 58.4558Z" fill="white"/>
<path d="M93.935 20.6318C87.023 18.0398 80.015 17.2718 76.847 17.2718C60.335 17.2718 51.887 28.0238 51.887 44.9198C51.887 58.6478 57.167 68.2478 70.703 68.2478C75.983 68.2478 80.879 66.1358 83.855 61.8158L84.239 61.9118L84.911 66.9998H94.799L93.935 57.7838V20.6318ZM82.607 51.7358C82.607 55.8638 79.151 60.0878 73.199 60.0878C65.135 60.0878 63.215 52.5038 63.215 44.5358C63.215 34.1678 66.287 25.6238 75.407 25.6238C78.383 25.6238 81.167 26.1998 82.607 26.8718V51.7358Z" fill="white"/>
<path d="M103.065 0.37579V53.6558C103.065 60.8558 103.834 68.4398 116.794 68.4398C120.922 68.4398 125.626 67.1918 128.218 65.5598L125.722 57.8798C123.706 58.7438 121.593 59.4158 119.674 59.4158C115.737 59.4158 114.49 57.2078 114.49 51.2558V0.37579H103.065Z" fill="white"/>
<path d="M150.931 59.2238C142.387 59.2238 138.739 52.5998 138.739 42.6158C138.739 31.6718 143.251 26.3918 149.683 26.3918C154.003 26.3918 157.458 29.2718 159.954 32.3438L167.155 26.3918C162.643 19.7678 155.731 17.2718 149.491 17.2718C139.315 17.2718 127.315 23.7998 127.315 43.0958C127.315 59.4158 135.475 68.3438 149.587 68.3438C156.691 68.3438 162.547 65.8478 166.291 62.7758L161.971 55.0958C158.035 57.9758 154.675 59.2238 150.931 59.2238Z" fill="white"/>
<path d="M198.938 18.7118V50.2958C198.938 54.9038 194.618 59.5118 189.434 59.5118C183.002 59.5118 181.946 55.1918 181.946 49.3358V18.7118H170.522V51.4478C170.522 62.7758 175.802 68.3438 186.362 68.3438C191.834 68.3438 197.018 66.1358 200.282 61.3358H200.666L201.338 66.9998H211.13L210.362 58.9358V18.7118H198.938Z" fill="white"/>
<path d="M219.582 0.37579V53.6558C219.582 60.8558 220.35 68.4398 233.31 68.4398C237.438 68.4398 242.142 67.1918 244.734 65.5598L242.238 57.8798C240.222 58.7438 238.11 59.4158 236.19 59.4158C232.254 59.4158 231.006 57.2078 231.006 51.2558V0.37579H219.582Z" fill="white"/>
<path d="M286.348 20.6318C279.436 18.0398 272.428 17.2718 269.26 17.2718C252.748 17.2718 244.299 28.0238 244.299 44.9198C244.299 58.6478 249.58 68.2478 263.116 68.2478C268.396 68.2478 273.292 66.1358 276.268 61.8158L276.652 61.9118L277.324 66.9998H287.212L286.348 57.7838V20.6318ZM275.02 51.7358C275.02 55.8638 271.564 60.0878 265.612 60.0878C257.548 60.0878 255.628 52.5038 255.628 44.5358C255.628 34.1678 258.7 25.6238 267.82 25.6238C270.796 25.6238 273.579 26.1998 275.02 26.8718V51.7358Z" fill="white"/>
<path d="M316.214 17.2718C301.43 17.2718 292.982 28.3118 292.982 44.7278C292.982 56.7278 296.918 68.4398 311.894 68.4398C317.174 68.4398 321.974 66.1358 324.95 61.7198L325.334 61.8158L326.102 66.9998H335.894L335.03 57.5918V0.279785H323.702V18.4238C321.494 17.7518 319.286 17.2718 316.214 17.2718ZM323.702 52.0238C323.702 55.7678 320.054 59.9918 314.198 59.9918C306.422 59.9918 304.31 52.4078 304.31 43.6718C304.31 34.2638 307.382 25.6238 316.502 25.6238C319.478 25.6238 321.974 26.3918 323.702 27.1598V52.0238Z" fill="white"/>
<path d="M363.168 59.9918C354.624 59.9918 353.185 50.3918 353.185 41.4638C353.185 32.2478 356.353 25.7198 363.361 25.7198C370.657 25.7198 373.152 32.3438 373.152 43.0958C373.152 53.0798 370.176 59.9918 363.168 59.9918ZM341.568 42.8078C341.568 60.1838 349.536 68.4398 362.4 68.4398C375.072 68.4398 384.865 59.9918 384.865 41.5598C384.865 19.4798 371.04 17.2718 363.936 17.2718C354.048 17.2718 341.568 22.8398 341.568 42.8078Z" fill="white"/>
<path d="M402.771 36.6638C402.963 31.0958 406.323 26.9678 411.507 26.9678C414.003 26.9678 416.211 27.7358 418.323 28.8878L420.339 19.1918C418.227 17.9438 415.539 17.2718 412.659 17.2718C407.859 17.2718 403.155 20.2478 401.043 25.7198L399.891 18.7118H390.483L391.348 26.4878V66.9998H402.771V36.6638Z" fill="white"/>
<path d="M460.453 20.6318C453.541 18.0398 446.533 17.2718 443.365 17.2718C426.853 17.2718 418.405 28.0238 418.405 44.9198C418.405 58.6478 423.685 68.2478 437.221 68.2478C442.501 68.2478 447.397 66.1358 450.373 61.8158L450.757 61.9118L451.429 66.9998H461.317L460.453 57.7838V20.6318ZM449.125 51.7358C449.125 55.8638 445.669 60.0878 439.717 60.0878C431.653 60.0878 429.733 52.5038 429.733 44.5358C429.733 34.1678 432.805 25.6238 441.925 25.6238C444.901 25.6238 447.685 26.1998 449.125 26.8718V51.7358Z" fill="white"/>
<path d="M77.0409 113.272C62.2569 113.272 53.8089 124.312 53.8089 140.728C53.8089 152.728 57.7449 164.44 72.7209 164.44C78.0009 164.44 82.8009 162.136 85.7769 157.72L86.1609 157.816L86.9289 163H96.7209L95.8569 153.592V96.2798H84.5289V114.424C82.3209 113.752 80.1129 113.272 77.0409 113.272ZM84.5289 148.024C84.5289 151.768 80.8809 155.992 75.0249 155.992C67.2489 155.992 65.1369 148.408 65.1369 139.672C65.1369 130.264 68.2089 121.624 77.3289 121.624C80.3049 121.624 82.8009 122.392 84.5289 123.16V148.024Z" fill="white"/>
<path d="M125.915 113.272C110.651 113.272 102.491 125.752 102.491 139.864C102.491 154.264 109.019 164.44 124.859 164.44C133.883 164.44 140.219 160.408 141.755 159.064L138.203 151.48C135.899 153.112 131.771 155.704 126.107 155.704C117.947 155.704 114.395 149.656 114.011 143.416C122.843 143.32 141.179 141.4 141.179 126.616C141.179 118.072 135.323 113.272 125.915 113.272ZM131.003 127.096C131.003 134.488 118.811 136.12 113.627 136.024C113.915 128.92 117.563 121.432 125.243 121.432C128.699 121.432 131.003 123.544 131.003 127.096Z" fill="white"/>
<path d="M184.847 155.224C176.303 155.224 172.655 148.6 172.655 138.616C172.655 127.672 177.167 122.392 183.599 122.392C187.919 122.392 191.375 125.272 193.871 128.344L201.071 122.392C196.559 115.768 189.647 113.272 183.407 113.272C173.231 113.272 161.231 119.8 161.231 139.096C161.231 155.416 169.391 164.344 183.503 164.344C190.607 164.344 196.463 161.848 200.207 158.776L195.887 151.096C191.951 153.976 188.591 155.224 184.847 155.224Z" fill="white"/>
<path d="M232.855 114.712V146.296C232.855 150.904 228.535 155.512 223.351 155.512C216.919 155.512 215.863 151.192 215.863 145.336V114.712H204.439V147.448C204.439 158.776 209.719 164.344 220.279 164.344C225.751 164.344 230.935 162.136 234.199 157.336H234.583L235.255 163H245.047L244.279 154.936V114.712H232.855Z" fill="white"/>
<path d="M272.507 155.992C263.963 155.992 262.523 146.392 262.523 137.464C262.523 128.248 265.691 121.72 272.699 121.72C279.995 121.72 282.491 128.344 282.491 139.096C282.491 149.08 279.515 155.992 272.507 155.992ZM250.907 138.808C250.907 156.184 258.875 164.44 271.739 164.44C284.411 164.44 294.203 155.992 294.203 137.56C294.203 115.48 280.379 113.272 273.275 113.272C263.387 113.272 250.907 118.84 250.907 138.808Z" fill="white"/>
<path d="M300.494 96.2798V148.408C300.494 155.128 300.398 164.344 315.374 164.344C319.886 164.344 324.686 163 327.566 160.984L324.686 153.592C323.15 154.552 320.75 155.608 318.158 155.608C314.222 155.608 311.918 153.88 311.918 148.024V123.64H324.878V114.712H311.918V96.2798H300.494Z" fill="white"/>
<path d="M369.322 116.632C362.41 114.04 355.402 113.272 352.234 113.272C335.722 113.272 327.274 124.024 327.274 140.92C327.274 154.648 332.554 164.248 346.09 164.248C351.37 164.248 356.266 162.136 359.242 157.816L359.626 157.912L360.298 163H370.186L369.322 153.784V116.632ZM357.994 147.736C357.994 151.864 354.538 156.088 348.586 156.088C340.522 156.088 338.602 148.504 338.602 140.536C338.602 130.168 341.674 121.624 350.794 121.624C353.77 121.624 356.554 122.2 357.994 122.872V147.736Z" fill="white"/>
<path d="M374.324 159.544C376.82 161.464 383.636 164.44 391.892 164.44C402.644 164.44 410.036 159.064 410.036 149.08C410.036 139.192 402.26 136.408 395.252 134.2C390.74 132.856 386.708 131.608 386.708 127.192C386.708 123.352 389.972 121.624 393.428 121.624C397.46 121.624 401.492 123.64 405.14 126.808L410.612 120.088C406.676 116.152 400.436 113.272 393.236 113.272C383.924 113.272 375.668 118.552 375.668 128.536C375.668 138.52 383.54 140.824 390.548 142.84C395.06 144.184 398.708 145.528 398.708 149.848C398.708 154.168 395.444 155.992 391.412 155.992C386.516 155.992 380.852 153.4 377.684 151.384L374.324 159.544Z" fill="white"/>
</svg>
