<svg width="47" height="48" viewBox="0 0 47 48" fill="none" xmlns="http://www.w3.org/2000/svg">
<path fill-rule="evenodd" clip-rule="evenodd" d="M0 2.10305C0 1.14166 0.779356 0.362305 1.74074 0.362305H5.69584C6.50778 0.370081 7.29147 0.661497 7.91133 1.18599C8.53011 1.70958 8.94677 2.43263 9.08954 3.23045C9.08979 3.23183 9.09003 3.23322 9.09028 3.23461L14.8999 35.1771H38.2963C39.2577 35.1771 40.037 35.9565 40.037 36.9179C40.037 37.8792 39.2577 38.6586 38.2963 38.6586H13.4472C12.606 38.6586 11.8851 38.057 11.7346 37.2293L5.66249 3.84379H1.74074C0.779356 3.84379 0 3.06443 0 2.10305Z" fill="black"/>
<path fill-rule="evenodd" clip-rule="evenodd" d="M15.6667 38.6582C14.2246 38.6582 13.0556 39.8273 13.0556 41.2693C13.0556 42.7114 14.2246 43.8805 15.6667 43.8805C17.1088 43.8805 18.2778 42.7114 18.2778 41.2693C18.2778 39.8273 17.1088 38.6582 15.6667 38.6582ZM9.5741 41.2693C9.5741 37.9045 12.3018 35.1768 15.6667 35.1768C19.0315 35.1768 21.7593 37.9045 21.7593 41.2693C21.7593 44.6342 19.0315 47.3619 15.6667 47.3619C12.3018 47.3619 9.5741 44.6342 9.5741 41.2693Z" fill="black"/>
<path fill-rule="evenodd" clip-rule="evenodd" d="M38.2962 38.6582C36.8541 38.6582 35.6851 39.8273 35.6851 41.2693C35.6851 42.7114 36.8541 43.8805 38.2962 43.8805C39.7383 43.8805 40.9073 42.7114 40.9073 41.2693C40.9073 39.8273 39.7383 38.6582 38.2962 38.6582ZM32.2036 41.2693C32.2036 37.9045 34.9314 35.1768 38.2962 35.1768C41.661 35.1768 44.3888 37.9045 44.3888 41.2693C44.3888 44.6342 41.661 47.3619 38.2962 47.3619C34.9314 47.3619 32.2036 44.6342 32.2036 41.2693Z" fill="black"/>
<path fill-rule="evenodd" clip-rule="evenodd" d="M6.96301 10.8062C6.96301 9.84479 7.74237 9.06543 8.70375 9.06543H45.2593C45.7756 9.06543 46.2653 9.29465 46.596 9.69115C46.9268 10.0876 47.0644 10.6105 46.9718 11.1185L44.3182 25.6696L44.3177 25.6724C44.1019 26.8753 43.4692 27.9638 42.5308 28.7469C41.5923 29.5299 40.4082 29.9574 39.186 29.9543L39.1832 29.9543L39.1885 28.214V29.9543H39.186H11.8588C10.8975 29.9543 10.1181 29.175 10.1181 28.2136C10.1181 27.2522 10.8975 26.4728 11.8588 26.4728H39.1885L39.1938 26.4728C39.5981 26.4741 39.9899 26.3328 40.3003 26.0737C40.6107 25.8147 40.8199 25.4546 40.8911 25.0566L40.8922 25.0508L43.1724 12.5469H8.70375C7.74237 12.5469 6.96301 11.7676 6.96301 10.8062Z" fill="black"/>
</svg>
