<svg width="105" height="105" viewBox="0 0 105 105" fill="none" xmlns="http://www.w3.org/2000/svg">
<rect width="105" height="105" fill="black"/>
<path d="M71.8914 94.3622H33.6837C28.8956 94.3622 25.0001 90.4668 25.0001 85.6787V19.6836C25.0001 14.8954 28.8956 11 33.6837 11H71.8914C76.6795 11 80.5749 14.8954 80.5749 19.6836V85.6787C80.5749 90.4668 76.6795 94.3622 71.8914 94.3622ZM33.6837 14.4734C30.8112 14.4734 28.4736 16.811 28.4736 19.6836V85.6787C28.4736 88.5512 30.8112 90.8888 33.6837 90.8888H71.8914C74.7639 90.8888 77.1015 88.5512 77.1015 85.6787V19.6836C77.1015 16.811 74.7639 14.4734 71.8914 14.4734H33.6837Z" fill="white"/>
<path d="M78.8381 28.3674H26.7367C25.7763 28.3674 25 27.5894 25 26.6307C25 25.672 25.7763 24.894 26.7367 24.894H78.8381C79.7985 24.894 80.5748 25.672 80.5748 26.6307C80.5748 27.5894 79.7985 28.3674 78.8381 28.3674Z" fill="white"/>
<path d="M78.8381 80.4688H26.7367C25.7763 80.4688 25 79.6908 25 78.7321C25 77.7734 25.7763 76.9954 26.7367 76.9954H78.8381C79.7985 76.9954 80.5748 77.7734 80.5748 78.7321C80.5748 79.6908 79.7985 80.4688 78.8381 80.4688Z" fill="white"/>
<path d="M52.7875 82.2055C50.8701 82.2055 49.3141 83.7616 49.3141 85.6789C49.3141 87.5963 50.8701 89.1524 52.7875 89.1524C54.7048 89.1524 56.2609 87.5963 56.2609 85.6789C56.2609 83.7616 54.7048 82.2055 52.7875 82.2055Z" fill="white"/>
<path d="M61.4711 21.42H44.104C43.1436 21.42 42.3673 20.642 42.3673 19.6833C42.3673 18.7246 43.1436 17.9466 44.104 17.9466H61.4711C62.4315 17.9466 63.2078 18.7246 63.2078 19.6833C63.2078 20.642 62.4315 21.42 61.4711 21.42Z" fill="white"/>
<path d="M65.2015 38.737C64.892 38.2239 64.4556 37.7991 63.9342 37.5038C63.4128 37.2084 62.824 37.0523 62.2248 37.0507H43.3502C42.138 37.0507 40.9969 37.6968 40.3735 38.737L35.6687 46.5766C35.5059 46.8465 35.42 47.1558 35.4204 47.471C35.4273 49.1473 36.0447 50.7636 37.1571 52.0177V66.5748C37.1571 68.4904 38.7149 70.0483 40.6305 70.0483H64.9445C66.8601 70.0483 68.4179 68.4904 68.4179 66.5748V52.0177C69.5303 50.7636 70.1477 49.1473 70.1546 47.471C70.155 47.1558 70.0691 46.8465 69.9063 46.5766L65.2015 38.737ZM66.6534 47.9069C66.5462 48.7454 66.1373 49.5162 65.5032 50.0752C64.8691 50.6342 64.0531 50.9432 63.2078 50.9444C61.2922 50.9444 59.7343 49.3866 59.7343 47.471C59.7343 47.3529 59.6909 47.2487 59.6666 47.1375L59.7013 47.1306L58.3797 40.5241H62.2248L66.6534 47.9069ZM50.7364 40.5241H54.8368L56.2488 47.5839C56.188 49.4456 54.6631 50.9444 52.7875 50.9444C50.9118 50.9444 49.387 49.4456 49.3262 47.5839L50.7364 40.5241ZM43.3502 40.5241H47.1953L45.8754 47.1306L45.9101 47.1375C45.8841 47.2487 45.8406 47.3529 45.8406 47.471C45.8406 49.3866 44.2828 50.9444 42.3672 50.9444C41.5219 50.9432 40.7059 50.6342 40.0718 50.0752C39.4376 49.5162 39.0288 48.7454 38.9216 47.9069L43.3502 40.5241ZM49.3141 66.5748V61.3647H56.2609V66.5748H49.3141ZM59.7343 66.5748V61.3647C59.7343 59.4491 58.1765 57.8913 56.2609 57.8913H49.3141C47.3985 57.8913 45.8406 59.4491 45.8406 61.3647V66.5748H40.6305V54.1712C41.188 54.3154 41.7628 54.4178 42.3672 54.4178C43.3533 54.4184 44.3282 54.2084 45.2267 53.802C46.1252 53.3956 46.9266 52.802 47.5773 52.0611C48.8504 53.5061 50.7156 54.4178 52.7875 54.4178C54.8594 54.4178 56.7246 53.5061 57.9976 52.0611C58.6484 52.802 59.4498 53.3956 60.3483 53.802C61.2468 54.2084 62.2216 54.4184 63.2078 54.4178C63.8121 54.4178 64.387 54.3154 64.9445 54.1712V66.5748H59.7343Z" fill="white"/>
</svg>
