<svg width="100" height="100" viewBox="0 0 100 100" fill="none" xmlns="http://www.w3.org/2000/svg">
<g clip-path="url(#clip0_33_28)">
<path d="M100 0H0V100H100V0Z" fill="#6043A7"/>
<path d="M54.408 74.456C42.696 74.456 37.32 65.336 37.32 50.648C37.32 36.152 43.848 27.896 53.736 27.896C59.496 27.896 63.816 30.872 67.848 35.96L76.2 29.912C70.152 20.984 61.8 18.008 54.312 18.008C40.68 18.008 25.32 26.36 25.32 51.416C25.32 73.304 36.36 84.152 53.736 84.152C62.088 84.152 69.096 81.368 75.432 75.416L69.384 67.736C64.584 72.056 59.784 74.456 54.408 74.456Z" fill="white"/>
</g>
<defs>
<clipPath id="clip0_33_28">
<rect width="100" height="100" fill="white"/>
</clipPath>
</defs>
</svg>
