<svg width="304" height="84" viewBox="0 0 304 84" fill="none" xmlns="http://www.w3.org/2000/svg">
<path d="M73.1511 29.1144C73.3298 34.4953 77.7179 37.7715 84.6078 37.7715C91.7162 37.7715 96.2234 34.2571 96.2234 28.6975C96.2234 24.3292 93.7216 21.8671 87.9833 20.6361L84.5086 19.9014C81.2125 19.1469 79.8226 18.1541 79.8226 16.3869C79.8226 14.2624 81.8082 12.8526 84.7667 12.8526C87.7649 12.8526 89.8895 14.3219 90.088 16.7443H95.7072C95.6079 11.562 91.4184 8.12695 84.7468 8.12695C78.3533 8.12695 73.7865 11.6216 73.7865 16.9032C73.7865 21.0927 76.3876 23.7733 81.6692 24.905L85.4021 25.7191C88.857 26.4935 90.227 27.526 90.227 29.3924C90.227 31.4971 88.0429 33.026 84.8461 33.026C81.6692 33.026 79.2071 31.4773 78.9291 29.1144H73.1511Z" fill="black"/>
<path d="M99.8268 37.2751H105.625V24.4285C105.625 22.0458 107.114 20.3779 109.318 20.3779C111.462 20.3779 112.753 21.7281 112.753 24.0115V37.2751H118.332V24.3491C118.332 21.9862 119.782 20.3779 121.986 20.3779C124.23 20.3779 125.461 21.7281 125.461 24.1902V37.2751H131.258V22.7408C131.258 18.4519 128.459 15.5927 124.289 15.5927C121.172 15.5927 118.63 17.2804 117.677 19.961H117.558C116.843 17.1812 114.699 15.5927 111.621 15.5927C108.722 15.5927 106.439 17.2804 105.545 19.8418H105.426V15.9898H99.8268V37.2751Z" fill="black"/>
<path d="M143.559 33.4231C141.593 33.4231 140.282 32.4303 140.282 30.8419C140.282 29.3329 141.514 28.3599 143.678 28.2011L148.165 27.9231V29.4718C148.165 31.7751 146.08 33.4231 143.559 33.4231ZM141.653 37.6127C144.313 37.6127 146.954 36.2824 148.145 34.0188H148.264V37.2751H153.864V22.6415C153.864 18.3526 150.31 15.5331 144.849 15.5331C139.21 15.5331 135.696 18.3725 135.477 22.5025H140.779C141.057 20.9339 142.427 19.8617 144.591 19.8617C146.775 19.8617 148.165 21.0133 148.165 22.9989V24.4086L142.804 24.7263C137.503 25.044 134.524 27.2877 134.524 31.1596C134.524 34.9917 137.602 37.6127 141.653 37.6127Z" fill="black"/>
<path d="M158.023 37.2751H163.821V25.3816C163.821 22.3834 165.489 20.6361 168.348 20.6361C169.182 20.6361 169.976 20.775 170.453 20.9736V15.8707C170.056 15.7515 169.48 15.6523 168.805 15.6523C166.303 15.6523 164.496 17.1216 163.742 19.822H163.622V15.9898H158.023V37.2751Z" fill="black"/>
<path d="M174.791 11.0855V15.9898H171.793V20.3581H174.791V31.5368C174.791 35.6867 176.737 37.3546 181.74 37.3546C182.912 37.3546 183.905 37.2553 184.5 37.1163V32.8473C184.143 32.9069 183.607 32.9466 183.091 32.9466C181.383 32.9466 180.589 32.1722 180.589 30.5441V20.3581H184.52V15.9898H180.589V11.0855H174.791Z" fill="black"/>
<path d="M200.533 15.6523C197.456 15.6523 195.093 17.201 193.941 19.7028H193.822V15.9898H188.104V44.2246H193.902V33.7011H194.021C195.153 36.1037 197.535 37.6127 200.633 37.6127C205.954 37.6127 209.25 33.4827 209.25 26.6325C209.25 19.7624 205.934 15.6523 200.533 15.6523ZM198.588 32.9466C195.748 32.9466 193.882 30.4845 193.882 26.6325C193.882 22.8202 195.748 20.2985 198.588 20.2985C201.487 20.2985 203.313 22.7805 203.313 26.6325C203.313 30.5043 201.487 32.9466 198.588 32.9466Z" fill="black"/>
<path d="M212.794 37.2751H218.592V25.1234C218.592 22.3238 220.2 20.3978 222.94 20.3978C225.581 20.3978 226.931 22.0657 226.931 24.8058V37.2751H232.729V23.5747C232.729 18.6505 230.029 15.5927 225.303 15.5927C222.067 15.5927 219.743 17.1017 218.612 19.7823H218.493V8.62335H212.794V37.2751Z" fill="black"/>
<path d="M246.618 37.7318C253.051 37.7318 257.161 33.6217 257.161 26.6126C257.161 19.7028 252.991 15.5331 246.618 15.5331C240.244 15.5331 236.074 19.7227 236.074 26.6126C236.074 33.6018 240.185 37.7318 246.618 37.7318ZM246.618 33.304C243.759 33.304 241.952 30.9015 241.952 26.6325C241.952 22.4032 243.798 19.961 246.618 19.961C249.437 19.961 251.264 22.4032 251.264 26.6325C251.264 30.9015 249.457 33.304 246.618 33.304Z" fill="black"/>
<path d="M260.566 37.2751H266.364V25.0639C266.364 22.3039 268.012 20.3978 270.613 20.3978C273.214 20.3978 274.525 21.9862 274.525 24.766V37.2751H280.322V23.5548C280.322 18.5711 277.662 15.5927 272.936 15.5927C269.66 15.5927 267.416 17.1414 266.284 19.7823H266.165V15.9898H260.566V37.2751Z" fill="black"/>
<path d="M293.953 19.822C296.534 19.822 298.301 21.6884 298.421 24.4086H289.386C289.585 21.748 291.411 19.822 293.953 19.822ZM298.5 30.7625C297.964 32.3906 296.336 33.443 294.211 33.443C291.253 33.443 289.327 31.3581 289.327 28.3202V27.9628H304V26.1957C304 19.7227 300.088 15.5331 293.893 15.5331C287.599 15.5331 283.628 19.9411 283.628 26.7318C283.628 33.5423 287.559 37.7318 294.112 37.7318C299.374 37.7318 303.186 34.9322 303.821 30.7625H298.5Z" fill="black"/>
<path d="M73.2504 70.0569C73.5879 75.1201 77.7973 78.4162 83.8732 78.4162C90.4653 78.4162 94.5953 75.14 94.5953 69.8981C94.5953 65.7879 92.1927 63.5045 86.2559 62.0154L83.2577 61.2211C79.3659 60.2085 77.7775 58.9179 77.7775 56.7536C77.7775 53.9539 80.3587 52.0279 84.0717 52.0279C87.8046 52.0279 90.2866 53.9142 90.6043 56.9919H94.1783C94.0194 52.1868 89.8895 48.8113 84.1909 48.8113C78.2342 48.8113 74.0645 52.1471 74.0645 56.9124C74.0645 60.8042 76.4074 63.1273 81.6891 64.4775L85.3624 65.4305C89.2144 66.4233 90.9021 67.9125 90.9021 70.3349C90.9021 73.1544 88.0826 75.1996 84.2107 75.1996C80.1204 75.1996 77.1818 73.1544 76.8443 70.0569H73.2504Z" fill="black"/>
<path d="M99.7474 52.3059V57.2897H96.6698V60.1291H99.7474V72.5786C99.7474 76.5497 101.217 78.0985 105.009 78.0985C105.823 78.0985 106.776 78.0389 107.193 77.9396V75.0407C106.955 75.0804 106.161 75.14 105.764 75.14C103.997 75.14 103.202 74.2862 103.202 72.3999V60.1291H107.213V57.2897H103.202V52.3059H99.7474Z" fill="black"/>
<path d="M119.275 78.297C124.974 78.297 128.826 74.1869 128.826 67.6147C128.826 61.0226 124.974 56.9323 119.275 56.9323C113.557 56.9323 109.705 61.0226 109.705 67.6147C109.705 74.1869 113.557 78.297 119.275 78.297ZM119.275 75.2591C115.622 75.2591 113.219 72.4793 113.219 67.6147C113.219 62.75 115.622 59.9702 119.275 59.9702C122.929 59.9702 125.311 62.75 125.311 67.6147C125.311 72.4793 122.929 75.2591 119.275 75.2591Z" fill="black"/>
<path d="M132.727 77.9396H136.182V65.0731C136.182 62.1544 137.929 60.2283 140.61 60.2283C141.444 60.2283 142.178 60.3276 142.456 60.4269V57.0713C142.178 57.0316 141.662 56.9323 141.066 56.9323C138.644 56.9323 136.738 58.3818 136.063 60.6652H135.983V57.2897H132.727V77.9396Z" fill="black"/>
<path d="M152.969 59.9305C156.226 59.9305 158.39 62.3926 158.47 65.8475H147.251C147.469 62.4125 149.733 59.9305 152.969 59.9305ZM158.39 72.0226C157.814 73.9685 155.888 75.2988 153.267 75.2988C149.554 75.2988 147.231 72.6977 147.231 68.7464V68.5479H162.044V67.2374C162.044 60.9829 158.609 56.9323 153.029 56.9323C147.33 56.9323 143.677 61.2807 143.677 67.6941C143.677 74.1869 147.271 78.297 153.188 78.297C157.695 78.297 161.19 75.6364 161.785 72.0226H158.39Z" fill="black"/>
<path d="M46.8914 83.3622H8.6837C3.89558 83.3622 0.000130383 79.4668 0.000130383 74.6787V8.68357C0.000130383 3.89545 3.89558 0 8.6837 0H46.8914C51.6795 0 55.5749 3.89545 55.5749 8.68357V74.6787C55.5749 79.4668 51.6795 83.3622 46.8914 83.3622ZM8.6837 3.47343C5.81117 3.47343 3.47356 5.81104 3.47356 8.68357V74.6787C3.47356 77.5512 5.81117 79.8888 8.6837 79.8888H46.8914C49.7639 79.8888 52.1015 77.5512 52.1015 74.6787V8.68357C52.1015 5.81104 49.7639 3.47343 46.8914 3.47343H8.6837Z" fill="black"/>
<path d="M53.8381 17.3674H1.73671C0.776311 17.3674 0 16.5894 0 15.6307C0 14.672 0.776311 13.894 1.73671 13.894H53.8381C54.7985 13.894 55.5748 14.672 55.5748 15.6307C55.5748 16.5894 54.7985 17.3674 53.8381 17.3674Z" fill="black"/>
<path d="M53.8381 69.4688H1.73671C0.776311 69.4688 0 68.6908 0 67.7321C0 66.7734 0.776311 65.9954 1.73671 65.9954H53.8381C54.7985 65.9954 55.5748 66.7734 55.5748 67.7321C55.5748 68.6908 54.7985 69.4688 53.8381 69.4688Z" fill="black"/>
<path d="M27.7875 71.2055C25.8701 71.2055 24.3141 72.7616 24.3141 74.6789C24.3141 76.5963 25.8701 78.1524 27.7875 78.1524C29.7048 78.1524 31.2609 76.5963 31.2609 74.6789C31.2609 72.7616 29.7048 71.2055 27.7875 71.2055Z" fill="black"/>
<path d="M36.4711 10.42H19.104C18.1436 10.42 17.3673 9.64196 17.3673 8.68329C17.3673 7.72463 18.1436 6.94658 19.104 6.94658H36.4711C37.4315 6.94658 38.2078 7.72463 38.2078 8.68329C38.2078 9.64196 37.4315 10.42 36.4711 10.42Z" fill="black"/>
<path d="M40.2015 27.737C39.892 27.2239 39.4556 26.7991 38.9342 26.5038C38.4128 26.2084 37.824 26.0523 37.2248 26.0507H18.3502C17.138 26.0507 15.9969 26.6968 15.3735 27.737L10.6687 35.5766C10.5059 35.8465 10.42 36.1558 10.4204 36.471C10.4273 38.1473 11.0447 39.7636 12.1571 41.0177V55.5748C12.1571 57.4904 13.7149 59.0483 15.6305 59.0483H39.9445C41.8601 59.0483 43.4179 57.4904 43.4179 55.5748V41.0177C44.5303 39.7636 45.1477 38.1473 45.1546 36.471C45.155 36.1558 45.0691 35.8465 44.9063 35.5766L40.2015 27.737ZM41.6534 36.9069C41.5462 37.7454 41.1373 38.5162 40.5032 39.0752C39.8691 39.6342 39.0531 39.9432 38.2078 39.9444C36.2922 39.9444 34.7343 38.3866 34.7343 36.471C34.7343 36.3529 34.6909 36.2487 34.6666 36.1375L34.7013 36.1306L33.3797 29.5241H37.2248L41.6534 36.9069ZM25.7364 29.5241H29.8368L31.2488 36.5839C31.188 38.4456 29.6631 39.9444 27.7875 39.9444C25.9118 39.9444 24.387 38.4456 24.3262 36.5839L25.7364 29.5241ZM18.3502 29.5241H22.1953L20.8754 36.1306L20.9101 36.1375C20.8841 36.2487 20.8406 36.3529 20.8406 36.471C20.8406 38.3866 19.2828 39.9444 17.3672 39.9444C16.5219 39.9432 15.7059 39.6342 15.0718 39.0752C14.4376 38.5162 14.0288 37.7454 13.9216 36.9069L18.3502 29.5241ZM24.3141 55.5748V50.3647H31.2609V55.5748H24.3141ZM34.7343 55.5748V50.3647C34.7343 48.4491 33.1765 46.8913 31.2609 46.8913H24.3141C22.3985 46.8913 20.8406 48.4491 20.8406 50.3647V55.5748H15.6305V43.1712C16.188 43.3154 16.7628 43.4178 17.3672 43.4178C18.3533 43.4184 19.3282 43.2084 20.2267 42.802C21.1252 42.3956 21.9266 41.802 22.5773 41.0611C23.8504 42.5061 25.7156 43.4178 27.7875 43.4178C29.8594 43.4178 31.7246 42.5061 32.9976 41.0611C33.6484 41.802 34.4498 42.3956 35.3483 42.802C36.2468 43.2084 37.2216 43.4184 38.2078 43.4178C38.8121 43.4178 39.387 43.3154 39.9445 43.1712V55.5748H34.7343Z" fill="black"/>
</svg>
