<svg width="102" height="63" viewBox="0 0 102 63" fill="none" xmlns="http://www.w3.org/2000/svg">
<path d="M64.7606 6.72949H37.1577V56.1859H64.7606V6.72949Z" fill="#FF5A00"/>
<path d="M38.9952 31.4575C38.9952 21.4094 43.7318 12.4914 51 6.72925C45.6509 2.53492 38.9033 0 31.5432 0C14.1077 0 0 14.0693 0 31.4575C0 48.8456 14.1077 62.9149 31.5432 62.9149C38.9033 62.9149 45.6509 60.38 51 56.1857C43.7216 50.505 38.9952 41.5055 38.9952 31.4575Z" fill="#EB001B"/>
<path d="M102 31.4575C102 48.8456 87.8923 62.9149 70.4568 62.9149C63.0967 62.9149 56.3491 60.38 51 56.1857C58.3601 50.4134 63.0048 41.5055 63.0048 31.4575C63.0048 21.4094 58.2682 12.4914 51 6.72925C56.3389 2.53492 63.0865 0 70.4466 0C87.8923 0 102 14.161 102 31.4575Z" fill="#F79E1B"/>
</svg>
