<svg width="161" height="25" viewBox="0 0 161 25" fill="none" xmlns="http://www.w3.org/2000/svg">
<path d="M132.936 0.781166L133.244 19.1406H133.09L127.862 0.781166H119.251V23.906H124.94L124.633 4.92216H124.787L130.399 23.906H138.626V0.781166H132.936ZM24.6035 0.781166L20.2981 24.1411H26.5261L29.6783 2.89085H29.832L32.9077 24.1404H39.0586L34.8297 0.781166H24.6035ZM59.356 0.781166L56.5117 18.5939H56.3574L53.513 0.781166H44.1328L43.6713 24.1411H49.4377L49.592 3.12466H49.6685L53.5124 24.1404H59.356L63.2006 3.12534H63.3548L63.5078 24.1404H69.2743L68.7363 0.781166H59.356ZM10.6106 17.4999C10.8407 18.0465 10.7642 18.8284 10.687 19.219C10.5334 20.0001 9.99542 20.7813 8.4572 20.7813C6.99679 20.7813 6.15087 19.9224 6.15087 18.6716V16.4065H0V18.2033C0 23.4377 4.07464 25 8.38072 25C12.5325 25 15.992 23.5154 16.5307 19.6873C16.8379 17.656 16.6072 16.3281 16.5307 15.8591C15.454 10.9377 6.68955 9.53143 6.07372 6.79668C5.99725 6.32771 5.99725 5.85942 6.07372 5.54655C6.22802 4.76538 6.76603 3.98421 8.14995 3.98421C9.53388 3.98421 10.3033 4.84308 10.3033 6.0939V7.50014H16.0691V5.85942C16.0691 0.781165 11.533 0 8.30358 0C4.22893 0 0.845921 1.40623 0.230767 5.15596C0.076475 6.17161 0 7.10955 0.307242 8.2813C1.23031 13.1251 9.45808 14.5313 10.6106 17.4999ZM85.4212 17.4999C85.6513 18.0472 85.5742 18.75 85.4977 19.219C85.3434 20.0001 84.8054 20.7813 83.2679 20.7813C81.8068 20.7813 80.9615 19.9224 80.9615 18.6716V16.4065H74.81V18.2033C74.81 23.3593 78.8082 24.9223 83.1142 24.9223C87.266 24.9223 90.649 23.5161 91.187 19.6096C91.495 17.5783 91.2642 16.3281 91.187 15.7814C90.2646 10.9377 81.576 9.45305 80.9615 6.79736C80.8844 6.32839 80.8844 5.85942 80.9615 5.54655C81.1152 4.76538 81.6532 3.98421 83.0371 3.98421C84.3439 3.98421 85.1905 4.84308 85.1905 6.0939V7.50014H90.8791V5.85942C90.8791 0.781165 86.4201 0 83.1914 0C79.1161 0 75.8095 1.32784 75.1951 5.15596C75.0408 6.17161 75.0408 7.10955 75.2715 8.2813C76.1946 13.1251 84.2674 14.4529 85.4212 17.4999ZM104.796 20.6252C106.411 20.6252 106.872 19.5312 107.025 18.9061C107.103 18.6723 107.103 18.281 107.103 18.0472V0.781166H112.946V17.5783C112.946 18.0472 112.946 18.9061 112.869 19.1406C112.485 23.5161 109.102 24.9223 104.873 24.9223C100.644 24.9223 97.2614 23.5161 96.8764 19.1406C96.8764 18.9061 96.7999 18.0472 96.7999 17.5783V0.781166H102.643V18.0472C102.643 18.3594 102.643 18.6716 102.72 18.9061C102.72 19.5312 103.182 20.6252 104.796 20.6252ZM152.773 20.3907C154.465 20.3907 155.003 19.2967 155.156 18.6716C155.234 18.4378 155.234 18.0465 155.234 17.8127V14.4529H152.85V11.0154H161V17.2661C161 17.7343 161 18.0465 160.923 18.8284C160.538 23.1248 156.925 24.6094 152.85 24.6094C148.775 24.6094 145.162 23.1248 144.777 18.8284C144.7 18.0465 144.7 17.7343 144.7 17.2654V7.42243C144.7 7.03117 144.777 6.25 144.777 5.85942C145.315 1.48394 148.775 0.077709 152.85 0.077709C156.925 0.077709 160.462 1.48394 160.923 5.85942C161 6.56219 161 7.42175 161 7.42175V8.20291H155.234V6.87507C155.234 6.87507 155.234 6.32771 155.156 6.01552C155.08 5.46884 154.618 4.29709 152.85 4.29709C151.159 4.29709 150.697 5.39045 150.544 6.01552C150.467 6.32771 150.467 6.71897 150.467 7.10955V17.8127C150.467 18.1249 150.467 18.4371 150.544 18.6716C150.544 19.2967 151.159 20.3907 152.773 20.3907Z" fill="black"/>
</svg>
