<svg width="482" height="186" viewBox="0 0 482 186" fill="none" xmlns="http://www.w3.org/2000/svg">
<path d="M44.4269 69.0001L50.0909 52.1041H72.5549L78.3149 69.0001H90.7949L68.2349 5.16006H55.1789L33.0989 69.0001H44.4269ZM61.3229 15.9121C61.3229 15.9121 61.5149 15.9121 61.6109 15.9121L70.2509 43.2721H52.3949L61.3229 15.9121Z" fill="#6043A7"/>
<path d="M114.913 19.2721C100.129 19.2721 91.6814 30.3121 91.6814 46.7281C91.6814 58.7281 95.6174 70.4401 110.593 70.4401C115.873 70.4401 120.673 68.1361 123.649 63.7201L124.033 63.8161L124.801 69.0001H134.593L133.729 59.5921V2.28005H122.401V20.4241C120.193 19.7521 117.985 19.2721 114.913 19.2721ZM122.401 54.0241C122.401 57.7681 118.753 61.9921 112.897 61.9921C105.121 61.9921 103.009 54.4081 103.009 45.6721C103.009 36.2641 106.081 27.6241 115.201 27.6241C118.177 27.6241 120.673 28.3921 122.401 29.1601V54.0241Z" fill="#6043A7"/>
<path d="M154.476 69.0001V20.7121H143.052V69.0001H154.476ZM142.092 6.88806C142.092 10.5361 144.684 13.2241 148.716 13.2241C152.556 13.2241 155.34 10.5361 155.34 6.88806C155.34 3.33606 152.652 0.456055 148.716 0.456055C144.78 0.456055 142.092 3.33606 142.092 6.88806Z" fill="#6043A7"/>
<path d="M188.665 20.7121C190.201 26.8561 191.929 34.5361 191.929 42.6001C191.929 51.8161 189.433 61.4161 181.369 61.4161C175.225 61.4161 174.841 56.8081 174.841 50.9521V20.7121H163.321V53.2561C163.321 65.0641 168.793 70.3441 180.121 70.3441C195.385 70.3441 203.161 59.4961 203.161 41.8321C203.161 34.5361 201.721 26.7601 199.993 20.7121H188.665Z" fill="#6043A7"/>
<path d="M221.935 69.0001V20.7121H210.511V69.0001H221.935ZM209.551 6.88806C209.551 10.5361 212.143 13.2241 216.175 13.2241C220.015 13.2241 222.799 10.5361 222.799 6.88806C222.799 3.33606 220.111 0.456055 216.175 0.456055C212.239 0.456055 209.551 3.33606 209.551 6.88806Z" fill="#6043A7"/>
<path d="M242.396 69.0001V37.8001C242.396 32.8081 246.428 28.1041 252.188 28.1041C258.332 28.1041 259.388 32.6161 259.388 38.4721V69.0001H270.812V35.9761C270.812 24.6481 265.148 19.2721 255.548 19.2721C249.212 19.2721 244.124 21.9601 240.764 26.7601L239.804 20.7121H230.204L230.972 29.0641V69.0001H242.396Z" fill="#6043A7"/>
<path d="M319.204 22.6321C312.292 20.0401 305.284 19.2721 302.116 19.2721C285.604 19.2721 277.156 30.0241 277.156 46.9201C277.156 60.6481 282.436 70.2481 295.972 70.2481C301.252 70.2481 306.148 68.1361 309.124 63.8161L309.508 63.9121L310.18 69.0001H320.068L319.204 59.7841V22.6321ZM307.876 53.7361C307.876 57.8641 304.42 62.0881 298.468 62.0881C290.404 62.0881 288.484 54.5041 288.484 46.5361C288.484 36.1681 291.556 27.6241 300.676 27.6241C303.652 27.6241 306.436 28.2001 307.876 28.8721V53.7361Z" fill="#6043A7"/>
<path d="M324.207 65.5441C326.703 67.4641 333.519 70.4401 341.775 70.4401C352.527 70.4401 359.919 65.0641 359.919 55.0801C359.919 45.1921 352.143 42.4081 345.135 40.2001C340.623 38.8561 336.591 37.6081 336.591 33.1921C336.591 29.3521 339.855 27.6241 343.311 27.6241C347.343 27.6241 351.375 29.6401 355.023 32.8081L360.495 26.0881C356.559 22.1521 350.319 19.2721 343.119 19.2721C333.807 19.2721 325.551 24.5521 325.551 34.5361C325.551 44.5201 333.423 46.8241 340.431 48.8401C344.943 50.1841 348.591 51.5281 348.591 55.8481C348.591 60.1681 345.327 61.9921 341.295 61.9921C336.399 61.9921 330.735 59.4001 327.567 57.3841L324.207 65.5441Z" fill="#6043A7"/>
<path d="M365.674 2.28005V54.4081C365.674 61.1281 365.578 70.3441 380.554 70.3441C385.066 70.3441 389.866 69.0001 392.746 66.9841L389.866 59.5921C388.33 60.5521 385.93 61.6081 383.338 61.6081C379.402 61.6081 377.098 59.8801 377.098 54.0241V29.6401H390.058V20.7121H377.098V2.28005H365.674Z" fill="#6043A7"/>
<path d="M415.409 19.2721C400.145 19.2721 391.985 31.7521 391.985 45.8641C391.985 60.2641 398.513 70.4401 414.353 70.4401C423.377 70.4401 429.713 66.4081 431.249 65.0641L427.697 57.4801C425.393 59.1121 421.265 61.7041 415.601 61.7041C407.441 61.7041 403.889 55.6561 403.505 49.4161C412.337 49.3201 430.673 47.4001 430.673 32.6161C430.673 24.0721 424.817 19.2721 415.409 19.2721ZM420.497 33.0961C420.497 40.4881 408.305 42.1201 403.121 42.0241C403.409 34.9201 407.057 27.4321 414.737 27.4321C418.193 27.4321 420.497 29.5441 420.497 33.0961Z" fill="#6043A7"/>
<path d="M0.421753 98.3761V151.656C0.421753 158.856 1.18975 166.44 14.1498 166.44C18.2778 166.44 22.9818 165.192 25.5738 163.56L23.0778 155.88C21.0618 156.744 18.9498 157.416 17.0298 157.416C13.0938 157.416 11.8458 155.208 11.8458 149.256V98.3761H0.421753Z" fill="#6043A7"/>
<path d="M67.1875 118.632C60.2755 116.04 53.2675 115.272 50.0995 115.272C33.5875 115.272 25.1395 126.024 25.1395 142.92C25.1395 156.648 30.4195 166.248 43.9555 166.248C49.2355 166.248 54.1315 164.136 57.1075 159.816L57.4915 159.912L58.1635 165H68.0515L67.1875 155.784V118.632ZM55.8595 149.736C55.8595 153.864 52.4035 158.088 46.4515 158.088C38.3875 158.088 36.4675 150.504 36.4675 142.536C36.4675 132.168 39.5395 123.624 48.6595 123.624C51.6355 123.624 54.4195 124.2 55.8595 124.872V149.736Z" fill="#6043A7"/>
<path d="M72.19 161.544C74.686 163.464 81.502 166.44 89.758 166.44C100.51 166.44 107.902 161.064 107.902 151.08C107.902 141.192 100.126 138.408 93.118 136.2C88.606 134.856 84.574 133.608 84.574 129.192C84.574 125.352 87.838 123.624 91.294 123.624C95.326 123.624 99.358 125.64 103.006 128.808L108.478 122.088C104.542 118.152 98.302 115.272 91.102 115.272C81.79 115.272 73.534 120.552 73.534 130.536C73.534 140.52 81.406 142.824 88.414 144.84C92.926 146.184 96.574 147.528 96.574 151.848C96.574 156.168 93.31 157.992 89.278 157.992C84.382 157.992 78.718 155.4 75.55 153.384L72.19 161.544Z" fill="#6043A7"/>
<path d="M142.261 163.656C144.757 165.192 148.501 166.44 152.245 166.44C164.821 166.44 172.597 157.32 172.597 140.424C172.597 123.816 165.397 115.272 150.037 115.272C145.141 115.272 138.037 116.232 130.837 118.44V185.16H142.261V163.656ZM161.077 141.288C161.077 148.968 158.581 157.032 150.421 157.032C147.925 157.032 144.757 156.264 142.261 154.632V125.064C144.277 124.584 146.197 124.392 147.925 124.392C156.757 124.392 161.077 130.056 161.077 141.288Z" fill="#6043A7"/>
<path d="M218.886 118.632C211.974 116.04 204.966 115.272 201.798 115.272C185.286 115.272 176.838 126.024 176.838 142.92C176.838 156.648 182.118 166.248 195.654 166.248C200.934 166.248 205.83 164.136 208.806 159.816L209.19 159.912L209.862 165H219.75L218.886 155.784V118.632ZM207.558 149.736C207.558 153.864 204.102 158.088 198.15 158.088C190.086 158.088 188.166 150.504 188.166 142.536C188.166 132.168 191.238 123.624 200.358 123.624C203.334 123.624 206.118 124.2 207.558 124.872V149.736Z" fill="#6043A7"/>
<path d="M228.017 98.3761V151.656C228.017 158.856 228.785 166.44 241.745 166.44C245.873 166.44 250.577 165.192 253.169 163.56L250.673 155.88C248.657 156.744 246.545 157.416 244.625 157.416C240.689 157.416 239.441 155.208 239.441 149.256V98.3761H228.017Z" fill="#6043A7"/>
<path d="M294.783 118.632C287.871 116.04 280.862 115.272 277.694 115.272C261.182 115.272 252.734 126.024 252.734 142.92C252.734 156.648 258.015 166.248 271.551 166.248C276.831 166.248 281.727 164.136 284.703 159.816L285.086 159.912L285.759 165H295.647L294.783 155.784V118.632ZM283.454 149.736C283.454 153.864 279.999 158.088 274.047 158.088C265.983 158.088 264.062 150.504 264.062 142.536C264.062 132.168 267.134 123.624 276.254 123.624C279.23 123.624 282.014 124.2 283.454 124.872V149.736Z" fill="#6043A7"/>
<path d="M303.913 162.312C307.945 164.616 316.297 166.44 323.017 166.44C337.513 166.44 345.769 157.224 345.769 138.504C345.769 123.528 338.569 115.272 326.665 115.272C322.153 115.272 318.025 116.808 315.337 119.304V98.2801H303.913V162.312ZM315.337 130.824C315.337 126.504 319.273 123.624 323.689 123.624C332.617 123.624 334.441 132.552 334.441 140.04C334.441 153.192 330.217 158.28 323.497 158.28C320.329 158.28 317.161 157.32 315.337 156.36V130.824Z" fill="#6043A7"/>
<path d="M363.93 134.664C364.122 129.096 367.482 124.968 372.666 124.968C375.162 124.968 377.37 125.736 379.482 126.888L381.498 117.192C379.386 115.944 376.698 115.272 373.818 115.272C369.018 115.272 364.314 118.248 362.202 123.72L361.05 116.712H351.642L352.506 124.488V165H363.93V134.664Z" fill="#6043A7"/>
<path d="M421.611 118.632C414.699 116.04 407.691 115.272 404.523 115.272C388.011 115.272 379.563 126.024 379.563 142.92C379.563 156.648 384.843 166.248 398.379 166.248C403.659 166.248 408.555 164.136 411.531 159.816L411.915 159.912L412.587 165H422.475L421.611 155.784V118.632ZM410.283 149.736C410.283 153.864 406.827 158.088 400.875 158.088C392.811 158.088 390.891 150.504 390.891 142.536C390.891 132.168 393.963 123.624 403.083 123.624C406.059 123.624 408.843 124.2 410.283 124.872V149.736Z" fill="#6043A7"/>
<path d="M426.614 161.544C429.11 163.464 435.926 166.44 444.182 166.44C454.934 166.44 462.326 161.064 462.326 151.08C462.326 141.192 454.55 138.408 447.542 136.2C443.03 134.856 438.998 133.608 438.998 129.192C438.998 125.352 442.262 123.624 445.718 123.624C449.75 123.624 453.782 125.64 457.43 128.808L462.902 122.088C458.966 118.152 452.726 115.272 445.526 115.272C436.214 115.272 427.958 120.552 427.958 130.536C427.958 140.52 435.83 142.824 442.838 144.84C447.35 146.184 450.998 147.528 450.998 151.848C450.998 156.168 447.734 157.992 443.702 157.992C438.806 157.992 433.142 155.4 429.974 153.384L426.614 161.544Z" fill="#6043A7"/>
<path d="M469.617 114.216L471.633 147.72H478.449L480.368 114.216V102.984C480.368 100.392 479.121 98.2801 474.897 98.2801C470.961 98.2801 469.617 100.392 469.617 102.792V114.216ZM468.272 160.2C468.272 163.752 470.672 166.632 474.992 166.632C479.024 166.632 481.424 163.56 481.424 160.104C481.424 156.552 478.928 153.864 474.704 153.864C470.96 153.864 468.272 156.744 468.272 160.2Z" fill="#6043A7"/>
</svg>
