<svg width="118" height="38" viewBox="0 0 118 38" fill="none" xmlns="http://www.w3.org/2000/svg">
<path d="M47.5731 0.699219L41.5098 37.5451H51.0711L57.1343 0.699219H47.5731Z" fill="#004293"/>
<path d="M102.842 0.699219C100.51 0.699219 98.8775 1.39882 97.9447 3.73084L83.7194 37.7783H93.7471C93.7471 37.7783 95.3795 33.1142 95.8459 32.1814C97.0119 32.1814 106.573 32.1814 107.972 32.1814C108.206 33.5806 109.138 37.7783 109.138 37.7783H118L110.304 0.699219H102.842ZM98.4111 24.4858C99.1107 22.387 102.142 14.2249 102.142 14.2249C102.142 14.2249 102.842 12.1261 103.308 10.7269L104.008 13.9917C104.008 13.9917 105.874 22.8534 106.34 24.719H98.4111V24.4858Z" fill="#004293"/>
<path d="M76.257 15.6245C72.9922 13.9921 70.8933 12.8261 70.8933 10.9605C70.8933 9.32807 72.5258 7.69566 76.257 7.69566C79.2886 7.69566 81.6206 8.39526 83.4862 9.09487L84.419 9.56127L85.8182 1.63241C83.9526 0.932808 80.921 0 77.1898 0C67.8617 0 61.0989 5.13044 61.0989 12.1265C61.0989 17.4901 65.7629 20.5217 69.4941 22.1542C73.2254 24.0198 74.3914 25.1858 74.3914 26.8182C74.3914 29.3834 71.3597 30.3162 68.5613 30.3162C64.8301 30.3162 62.7313 29.8498 59.4665 28.4506L58.3005 27.751L56.9012 35.913C59.2333 36.8459 63.1977 37.7787 67.6285 37.7787C77.6562 37.7787 84.1858 32.8814 84.1858 25.1858C84.419 21.4545 81.8538 18.1897 76.257 15.6245Z" fill="#004293"/>
<path d="M33.581 0.699219L24.253 25.885L23.3202 20.7546L20.0553 3.73084C19.5889 1.39882 17.7233 0.699219 15.6245 0.699219H0.466404C0.233202 0.699219 0.233202 0.932421 0 0.932421C0 1.16562 8.86119e-07 1.39882 0.233202 1.39882C2.56522 2.09843 4.66403 2.79803 6.52965 3.73084C8.62846 4.66364 10.0277 6.52926 10.7273 8.62807L18.4229 37.5451H28.4506L43.3755 0.699219H33.581Z" fill="#004293"/>
</svg>
